<?xml version="1.0" encoding="UTF-8" standalone="no"?>
<svg
   xmlns:dc="http://purl.org/dc/elements/1.1/"
   xmlns:cc="http://creativecommons.org/ns#"
   xmlns:rdf="http://www.w3.org/1999/02/22-rdf-syntax-ns#"
   xmlns:svg="http://www.w3.org/2000/svg"
   xmlns="http://www.w3.org/2000/svg"
   xmlns:sodipodi="http://sodipodi.sourceforge.net/DTD/sodipodi-0.dtd"
   xmlns:inkscape="http://www.inkscape.org/namespaces/inkscape"
   sodipodi:docname="logo.svg"
   inkscape:version="1.0 (4035a4fb49, 2020-05-01)"
   width="256.0px"
   height="256.0px"
   viewBox="0 0 256.0 256.0"
   version="1.1"
   id="SVGRoot">
  <defs
     id="defs2830" />
  <sodipodi:namedview
     inkscape:snap-global="false"
     showguides="true"
     inkscape:snap-grids="false"
     inkscape:snap-to-guides="false"
     inkscape:window-maximized="1"
     inkscape:window-y="101"
     inkscape:window-x="0"
     inkscape:window-height="977"
     inkscape:window-width="1916"
     showgrid="true"
     inkscape:document-rotation="0"
     inkscape:current-layer="layer1"
     inkscape:document-units="px"
     inkscape:cy="113.66544"
     inkscape:cx="80.986415"
     inkscape:zoom="1.979899"
     inkscape:pageshadow="2"
     inkscape:pageopacity="0.0"
     borderopacity="1.0"
     bordercolor="#666666"
     pagecolor="#ffffff"
     id="base">
    <inkscape:grid
       type="xygrid"
       id="grid3400" />
  </sodipodi:namedview>
  <metadata
     id="metadata2833">
    <rdf:RDF>
      <cc:Work
         rdf:about="">
        <dc:format>image/svg+xml</dc:format>
        <dc:type
           rdf:resource="http://purl.org/dc/dcmitype/StillImage" />
        <dc:title></dc:title>
      </cc:Work>
    </rdf:RDF>
  </metadata>
  <g
     id="layer1"
     inkscape:groupmode="layer"
     inkscape:label="Layer 1">
    <path
       sodipodi:nodetypes="ccsccccccsccccccccccccsccccccsccccccscccsccczccccscccscccscc"
       d="M 100.86719,2.4589844 89.332031,16.962891 C 68.243639,24.23952 49.327335,38.701062 36.90625,57.826172 c -2.486027,3.827804 -4.684942,7.734117 -6.625,11.699219 -3.537556,-0.743202 -7.183482,-5.756986 -10.894531,-13.322266 l 2.970703,35.173828 c -6.139487,25.111997 -3.004732,51.312577 7.18164,74.753907 -3.081161,1.72456 -8.971235,1.17755 -16.582031,-0.76172 l 26.082031,18.66992 c 10.208575,16.11895 23.972266,30.16044 40.396485,40.54297 1.451465,0.91754 2.917529,1.80187 4.394531,2.66016 -1.083691,3.37518 -5.909964,6.89866 -13.019531,10.51367 l 28.441406,-2.81445 c 30.653287,13.03538 65.084497,14.78239 97.232427,6.49218 -0.0426,3.28418 -1.18021,7.65594 -3.10352,12.8125 l 14.47461,-16.21289 c 6.97621,-2.35922 13.81085,-5.18396 20.42578,-8.49609 4.95741,-2.48188 6.9819,-8.48539 4.52148,-13.4082 -2.45976,-4.92208 -8.47148,-6.90005 -13.42773,-4.41797 -23.97752,12.00567 -51.19342,16.86426 -77.33594,13.90625 l -17.76953,-19.9043 c 2.97109,7.96575 4.10382,14.09896 2.14063,17.15234 -12.71277,-3.05637 -24.94772,-8.07172 -36.164066,-15.16211 -9.538108,-6.02949 -18.005206,-13.52378 -25.169922,-22.03124 l -3.25,-31.53126 c -2.242811,8.13153 -4.895591,13.73878 -8.238281,15.11915 -5.932994,-10.33128 -10.170696,-21.53333 -12.408203,-33.04883 l 14.15625,-23.13867 c -6.859941,5.21564 -12.466398,8.08068 -15.947266,6.96289 -0.476366,-17.6695 3.939999,-35.459616 14.318359,-51.439457 1.424022,-2.192608 2.962265,-4.301826 4.589844,-6.333984 L 83.828125,51.226562 C 78.169151,51.431524 73.560638,51.107172 70.423828,50.041016 88.058435,35.643801 111.33535,28.699672 133.02539,33.128906 l 16.58399,23.234375 c -2.12485,-8.387599 -2.56595,-14.684943 -0.14258,-17.433593 1.78891,0.93144 3.55284,1.952563 5.2832,3.078124 20.39568,13.266945 31.08805,39.761101 22.64844,61.937498 l -25.23633,14.12696 c 7.12841,-0.99399 12.6869,-0.98403 15.77734,0.60546 -11.50764,11.41608 -29.77603,15.62154 -43.30273,6.53125 -5.35184,-3.59657 -13.15645,-9.275 -14.53516,-15.27929 L 132.25,91.757812 c -9.23482,3.0122 -19.98166,3.725303 -22.29688,0.34375 0.7492,-9.696534 11.25023,-14.795285 10.27149,-15.533203 -0.97874,-0.737918 -10.6444,1.181543 -15.94141,8.605469 -3.86164,4.89469 -8.117888,18.291132 -6.00195,28.384762 -3.081142,0.0978 -6.998597,-0.44663 -11.558594,-1.48242 l 14.087894,9.53711 c 3.40669,8.07241 9.18422,13.21746 16.55078,18.16797 4.48831,3.01625 9.22334,5.15162 14.06445,6.52734 -0.84066,3.32076 -3.82674,5.54226 -8.26172,10.3711 l 21.375,-8.48828 c 13.70152,-0.082 34.74109,-10.04108 44.97656,-26.45703 12.17915,-19.53329 13.64881,-39.572747 6.21485,-59.183599 1.02315,-4.065164 7.72245,-5.482917 17.58398,-5.425781 L 187.65625,46.949219 C 181.93565,38.413449 174.50713,30.948758 165.7793,25.271484 144.8662,11.667976 120.84531,8.9444144 98.488281,14.291016 c 0.0754,-3.143427 0.932573,-7.1591104 2.378909,-11.8320316 z"
       style="color:#000000;font-style:normal;font-variant:normal;font-weight:normal;font-stretch:normal;font-size:medium;line-height:normal;font-family:sans-serif;font-variant-ligatures:normal;font-variant-position:normal;font-variant-caps:normal;font-variant-numeric:normal;font-variant-alternates:normal;font-variant-east-asian:normal;font-feature-settings:normal;font-variation-settings:normal;text-indent:0;text-align:start;text-decoration:none;text-decoration-line:none;text-decoration-style:solid;text-decoration-color:#000000;letter-spacing:normal;word-spacing:normal;text-transform:none;writing-mode:lr-tb;direction:ltr;text-orientation:mixed;dominant-baseline:auto;baseline-shift:baseline;text-anchor:start;white-space:normal;shape-padding:0;shape-margin:0;inline-size:0;clip-rule:nonzero;display:inline;overflow:visible;visibility:visible;opacity:1;isolation:auto;mix-blend-mode:normal;color-interpolation:sRGB;color-interpolation-filters:linearRGB;solid-color:#000000;solid-opacity:1;vector-effect:none;fill:#7e4200;fill-opacity:1;fill-rule:nonzero;stroke:none;stroke-width:20;stroke-linecap:round;stroke-linejoin:round;stroke-miterlimit:4;stroke-dasharray:none;stroke-dashoffset:290.532;stroke-opacity:1;color-rendering:auto;image-rendering:auto;shape-rendering:auto;text-rendering:auto;enable-background:accumulate;stop-color:#000000;stop-opacity:1"
       id="path3637" />
  </g>
</svg>
